curl
version=1
nRows=405
nColumns=3
inDegrees=yes
endheader
time	r_shoulder_elev	r_elbow_flex
5.0900	39.025060	128.000000
5.1000	38.965586	128.000000
5.1100	38.910581	128.000000
5.1200	38.860211	128.000000
5.1300	38.814549	128.000000
5.1400	38.773583	128.000000
5.1500	38.737219	128.000000
5.1600	38.705293	128.000000
5.1700	38.677575	128.000000
5.1800	38.653779	128.000000
5.1900	38.633573	128.000000
5.2000	38.616591	128.000000
5.2100	38.602439	128.000000
5.2200	38.590704	128.000000
5.2300	38.580970	128.000000
5.2400	38.572820	128.000000
5.2500	38.565847	128.000000
5.2600	38.559661	128.000000
5.2700	38.553898	128.000000
5.2800	38.548223	128.000000
5.2900	38.542333	128.000000
5.3000	38.535966	128.000000
5.3100	38.528897	128.000000
5.3200	38.520944	127.583423
5.3300	38.511962	126.814391
5.3400	38.501849	126.004240
5.3500	38.490536	125.153207
5.3600	38.477990	124.261668
5.3700	38.464205	123.330151
5.3800	38.449198	122.359346
5.3900	38.433007	121.350126
5.4000	38.415678	120.303548
5.4100	38.397264	119.220864
5.4200	38.377815	118.103530
5.4300	38.357372	116.953200
5.4400	38.335960	115.771734
5.4500	38.313582	114.561188
5.4600	38.290211	113.323808
5.4700	38.265786	112.062019
5.4800	38.240208	110.778413
5.4900	38.213335	109.475725
5.5000	38.184980	108.156815
5.5100	38.154911	106.824643
5.5200	38.122849	105.482235
5.5300	38.088470	104.132655
5.5400	38.051407	102.778969
5.5500	38.011256	101.424212
5.5600	37.967576	100.071343
5.5700	37.919900	98.723217
5.5800	37.867737	97.382537
5.5900	37.810581	96.051826
5.6000	37.747920	94.733384
5.6100	37.679245	93.429257
5.6200	37.604056	92.141208
5.6300	37.521872	90.870684
5.6400	37.432242	89.618796
5.6500	37.334755	88.386298
5.6600	37.229043	87.173568
5.6700	37.114795	85.980601
5.6800	36.991764	84.806998
5.6900	36.859770	83.651968
5.7000	36.718712	82.514331
5.7100	36.568567	81.392526
5.7200	36.409400	80.284630
5.7300	36.241359	79.188376
5.7400	36.064683	78.101181
5.7500	35.879699	77.020180
5.7600	35.686819	75.942259
5.7700	35.486538	74.864104
5.7800	35.279432	73.782243
5.7900	35.066147	72.693101
5.8000	34.847397	71.593053
5.8100	34.623954	70.478483
5.8200	34.396639	69.345843
5.8300	34.166314	68.191711
5.8400	33.933867	67.012856
5.8500	33.700209	65.806290
5.8600	33.466256	64.569329
5.8700	33.232921	63.299639
5.8800	33.001102	61.995286
5.8900	32.771671	60.654773
5.9000	32.545464	59.277078
5.9100	32.323272	57.861673
5.9200	32.105828	56.408551
5.9300	31.893804	54.918226
5.9400	31.687799	53.391744
5.9500	31.488336	51.830671
5.9600	31.295857	50.237083
5.9700	31.110716	48.613543
5.9800	30.933180	46.963072
5.9900	30.763430	45.289120
6.0000	30.601553	43.595517
6.0100	30.447555	41.886436
6.0200	30.301357	40.166336
6.0300	30.162799	38.439915
6.0400	30.031652	36.712049
6.0500	29.907617	34.987740
6.0600	29.790340	33.272056
6.0700	29.679412	31.570076
6.0800	29.574387	29.886833
6.0900	29.474783	28.227261
6.1000	29.380098	26.596145
6.1100	29.289815	24.998073
6.1200	29.203414	23.437393
6.1300	29.120382	21.918167
6.1400	29.040219	20.444143
6.1500	28.962448	19.018719
6.1600	28.886623	17.644917
6.1700	28.812336	16.325363
6.1800	28.739221	15.062273
6.1900	28.666962	13.857440
6.2000	28.595294	12.712234
6.2100	28.524007	11.627602
6.2200	28.452949	10.604080
6.2300	28.382023	9.641801
6.2400	28.311193	8.740520
6.2500	28.240475	7.899633
6.2600	28.169942	7.118210
6.2700	28.099715	6.395025
6.2800	28.029964	5.728594
6.2900	27.960901	5.117215
6.3000	27.892774	4.559007
6.3100	27.825866	4.051959
6.3200	27.760484	3.593973
6.3300	27.696956	3.182909
6.3400	27.635626	2.816633
6.3500	27.576842	2.493064
6.3600	27.520958	2.210213
6.3700	27.468319	1.966230
6.3800	27.419263	1.759439
6.3900	27.374109	1.588373
6.4000	27.333155	1.451809
6.4100	27.296675	1.348792
6.4200	27.264910	1.278654
6.4300	27.238068	1.241038
6.4400	27.216322	1.235903
6.4500	27.199807	1.263531
6.4600	27.188616	1.324528
6.4700	27.182805	1.419820
6.4800	27.182388	1.550640
6.4900	27.187341	1.718509
6.5000	27.197603	1.925222
6.5100	27.213078	2.172814
6.5200	27.233638	2.463534
6.5300	27.259127	2.799810
6.5400	27.289364	3.184209
6.5500	27.324148	3.619395
6.5600	27.363264	4.108088
6.5700	27.406488	4.653012
6.5800	27.453589	5.256849
6.5900	27.504343	5.922187
6.6000	27.558529	6.651472
6.6100	27.615945	7.446953
6.6200	27.676405	8.310633
6.6300	27.739752	9.244223
6.6400	27.805859	10.249094
6.6500	27.874635	11.326234
6.6600	27.946033	12.476211
6.6700	28.020046	13.699140
6.6800	28.096716	14.994657
6.6900	28.176136	16.361894
6.7000	28.258447	17.799471
6.7100	28.343839	19.305488
6.7200	28.432551	20.877527
6.7300	28.524868	22.512663
6.7400	28.621117	24.207483
6.7500	28.721661	25.958113
6.7600	28.826894	27.760254
6.7700	28.937233	29.609225
6.7800	29.053111	31.500013
6.7900	29.174970	33.427338
6.8000	29.303248	35.385710
6.8100	29.438369	37.369504
6.8200	29.580738	39.373031
6.8300	29.730728	41.390617
6.8400	29.888670	43.416675
6.8500	30.054843	45.445783
6.8600	30.229470	47.472757
6.8700	30.412705	49.492718
6.8800	30.604628	51.501153
6.8900	30.805244	53.493974
6.9000	31.014470	55.467563
6.9100	31.232140	57.418807
6.9200	31.458002	59.345124
6.9300	31.691713	61.244478
6.9400	31.932848	63.115383
6.9500	32.180898	64.956891
6.9600	32.435275	66.768573
6.9700	32.695318	68.550488
6.9800	32.960299	70.303141
6.9900	33.229431	72.027437
7.0000	33.501874	73.724624
7.0100	33.776744	75.396233
7.0200	34.053124	77.044015
7.0300	34.330068	78.669877
7.0400	34.606616	80.275817
7.0500	34.881799	81.863861
7.0600	35.154646	83.436006
7.0700	35.424198	84.994161
7.0800	35.689508	86.540101
7.0900	35.949654	88.075423
7.1000	36.203743	89.601505
7.1100	36.450915	91.119484
7.1200	36.690348	92.630224
7.1300	36.921266	94.134308
7.1400	37.142938	95.632022
7.1500	37.354682	97.123359
7.1600	37.555870	98.608016
7.1700	37.745929	100.085407
7.1800	37.924343	101.554671
7.1900	38.090659	103.014698
7.2000	38.244483	104.464140
7.2100	38.385491	105.901443
7.2200	38.513422	107.324867
7.2300	38.628090	108.732518
7.2400	38.729379	110.122373
7.2500	38.817249	111.492311
7.2600	38.891738	112.840137
7.2700	38.952962	114.163617
7.2800	39.001117	115.460497
7.2900	39.036478	116.728535
7.3000	39.059404	117.965522
7.3100	39.070332	119.169303
7.3200	39.069777	120.337800
7.3300	39.058331	121.469032
7.3400	39.036660	122.561124
7.3500	39.005497	123.612329
7.3600	38.965642	124.621035
7.3700	38.917950	125.585774
7.3800	38.863331	126.505231
7.3900	38.802734	127.378246
7.4000	38.737146	128.000000
7.4100	38.667579	128.000000
7.4200	38.595058	128.000000
7.4300	38.520615	128.000000
7.4400	38.445276	128.000000
7.4500	38.370047	128.000000
7.4600	38.295907	128.000000
7.4700	38.223796	128.000000
7.4800	38.154603	128.000000
7.4900	38.089157	128.000000
7.5000	38.028217	128.000000
7.5100	37.972465	128.000000
7.5200	37.922495	128.000000
7.5300	37.878813	128.000000
7.5400	37.841825	128.000000
7.5500	37.811841	128.000000
7.5600	37.789065	128.000000
7.5700	37.773604	128.000000
7.5800	37.765458	128.000000
7.5900	37.764534	128.000000
7.6000	37.770640	128.000000
7.6100	37.783496	128.000000
7.6200	37.802738	128.000000
7.6300	37.827924	128.000000
7.6400	37.858545	128.000000
7.6500	37.894031	128.000000
7.6600	37.933760	128.000000
7.6700	37.977068	128.000000
7.6800	38.023258	128.000000
7.6900	38.071610	128.000000
7.7000	38.121389	128.000000
7.7100	38.171852	128.000000
7.7200	38.222263	128.000000
7.7300	38.271892	128.000000
7.7400	38.320030	127.990955
7.7500	38.365992	127.214347
7.7600	38.409123	126.395391
7.7700	38.448805	125.534237
7.7800	38.484460	124.631125
7.7900	38.515551	123.686399
7.8000	38.541590	122.700524
7.8100	38.562134	121.674092
7.8200	38.576791	120.607830
7.8300	38.585214	119.502611
7.8400	38.587104	118.359448
7.8500	38.582208	117.179502
7.8600	38.570315	115.964070
7.8700	38.551256	114.714589
7.8800	38.524899	113.432618
7.8900	38.491147	112.119830
7.9000	38.449936	110.777996
7.9100	38.401228	109.408970
7.9200	38.345013	108.014664
7.9300	38.281303	106.597031
7.9400	38.210132	105.158038
7.9500	38.131551	103.699645
7.9600	38.045630	102.223772
7.9700	37.952454	100.732283
7.9800	37.852124	99.226952
7.9900	37.744755	97.709447
8.0000	37.630475	96.181301
8.0100	37.509427	94.643900
8.0200	37.381768	93.098464
8.0300	37.247669	91.546036
8.0400	37.107317	89.987473
8.0500	36.960913	88.423444
8.0600	36.808676	86.854427
8.0700	36.650841	85.280719
8.0800	36.487662	83.702433
8.0900	36.319408	82.119520
8.1000	36.146371	80.531777
8.1100	35.968858	78.938867
8.1200	35.787197	77.340339
8.1300	35.601732	75.735653
8.1400	35.412827	74.124206
8.1500	35.220859	72.505360
8.1600	35.026223	70.878473
8.1700	34.829325	69.242930
8.1800	34.630580	67.598176
8.1900	34.430412	65.943746
8.2000	34.229250	64.279302
8.2100	34.027524	62.604661
8.2200	33.825660	60.919822
8.2300	33.624081	59.225000
8.2400	33.423198	57.520642
8.2500	33.223410	55.807455
8.2600	33.025100	54.086411
8.2700	32.828630	52.358766
8.2800	32.634340	50.626059
8.2900	32.442543	48.890112
8.3000	32.253526	47.153023
8.3100	32.067545	45.417155
8.3200	31.884826	43.685113
8.3300	31.705561	41.959727
8.3400	31.529911	40.244022
8.3500	31.358001	38.541190
8.3600	31.189925	36.854555
8.3700	31.025743	35.187535
8.3800	30.865487	33.543612
8.3900	30.709155	31.926286
8.4000	30.556721	30.339044
8.4100	30.408132	28.785315
8.4200	30.263312	27.268439
8.4300	30.122165	25.791627
8.4400	29.984581	24.357928
8.4500	29.850434	22.970197
8.4600	29.719591	21.631066
8.4700	29.591910	20.342919
8.4800	29.467250	19.107863
8.4900	29.345471	17.927711
8.5000	29.226437	16.803963
8.5100	29.110022	15.737794
8.5200	28.996111	14.730039
8.5300	28.884606	13.781194
8.5400	28.775426	12.891407
8.5500	28.668512	12.060485
8.5600	28.563827	11.287902
8.5700	28.461359	10.572805
8.5800	28.361121	9.914034
8.5900	28.263157	9.310139
8.6000	28.167533	8.759406
8.6100	28.074347	8.259878
8.6200	27.983720	7.809392
8.6300	27.895801	7.405606
8.6400	27.810761	7.046040
8.6500	27.728793	6.728106
8.6600	27.650110	6.449153
8.6700	27.574941	6.206503
8.6800	27.503528	5.997492
8.6900	27.436124	5.819508
8.7000	27.372988	5.670037
8.7100	27.314383	5.546691
8.7200	27.260572	5.447253
8.7300	27.211814	5.369707
8.7400	27.168362	5.312271
8.7500	27.130458	5.273427
8.7600	27.098333	5.251946
8.7700	27.072201	5.246908
8.7800	27.052259	5.257723
8.7900	27.038681	5.284143
8.8000	27.031621	5.326276
8.8100	27.031207	5.384584
8.8200	27.037542	5.459889
8.8300	27.050699	5.553368
8.8400	27.070724	5.666542
8.8500	27.097633	5.801267
8.8600	27.131410	5.959710
8.8700	27.172009	6.144334
8.8800	27.219352	6.357866
8.8900	27.273330	6.603269
8.9000	27.333803	6.883706
8.9100	27.400601	7.202508
8.9200	27.473524	7.563127
8.9300	27.552345	7.969097
8.9400	27.636811	8.423989
8.9500	27.726645	8.931361
8.9600	27.821548	9.494716
8.9700	27.921206	10.117448
8.9800	28.025288	10.802794
8.9900	28.133455	11.553788
9.0000	28.245364	12.373213
9.0100	28.360670	13.263555
9.0200	28.479036	14.226955
9.0300	28.600135	15.265175
9.0400	28.723655	16.379555
9.0500	28.849310	17.570979
9.0600	28.976839	18.839847
9.0700	29.106015	20.186049
9.0800	29.236648	21.608944
9.0900	29.368589	23.107351
9.1000	29.501733	24.679540
9.1100	29.636025	26.323232
9.1200	29.771455	28.035609
9.1300	29.908064	29.813327
